<?xml version="1.0" encoding="UTF-8" standalone="no"?>
<!-- Created with Inkscape (http://www.inkscape.org/) -->

<svg
   width="48.972mm"
   height="48.972mm"
   viewBox="0 0 48.971999 48.972"
   version="1.1"
   id="svg5"
   xml:space="preserve"
   inkscape:version="1.2.2 (b0a8486541, 2022-12-01)"
   sodipodi:docname="affordance.svg"
   xmlns:inkscape="http://www.inkscape.org/namespaces/inkscape"
   xmlns:sodipodi="http://sodipodi.sourceforge.net/DTD/sodipodi-0.dtd"
   xmlns="http://www.w3.org/2000/svg"
   xmlns:svg="http://www.w3.org/2000/svg"><sodipodi:namedview
     id="namedview7"
     pagecolor="#ffffff"
     bordercolor="#666666"
     borderopacity="1.0"
     inkscape:showpageshadow="2"
     inkscape:pageopacity="0.0"
     inkscape:pagecheckerboard="0"
     inkscape:deskcolor="#d1d1d1"
     inkscape:document-units="mm"
     showgrid="false"
     inkscape:zoom="0.51087175"
     inkscape:cx="9.7871921"
     inkscape:cy="220.21182"
     inkscape:window-width="1920"
     inkscape:window-height="1011"
     inkscape:window-x="0"
     inkscape:window-y="0"
     inkscape:window-maximized="1"
     inkscape:current-layer="layer1" /><defs
     id="defs2" /><g
     inkscape:label="Layer 1"
     inkscape:groupmode="layer"
     id="layer1"
     transform="translate(-97.879555,-71.129175)"><g
       id="g4359"
       transform="translate(15.309655,3.0325565)"><g
         id="g4351"
         transform="translate(0,1.5875)"><path
           id="path416-0-6"
           style="font-variation-settings:normal;fill:none;fill-opacity:1;stroke:#ffffff;stroke-width:2.6;stroke-linecap:butt;stroke-linejoin:miter;stroke-miterlimit:4;stroke-dasharray:none;stroke-dashoffset:0;stroke-opacity:1;stop-color:#000000"
           d="m 93.174015,80.42286 a 8.5880021,8.5880032 0 0 1 -0.329168,-2.35489 8.5880021,8.5880032 0 0 1 8.588003,-8.588 8.5880021,8.5880032 0 0 1 8.588,8.588 v 0 a 8.5880021,8.5880032 0 0 1 -0.33374,2.370898" /><path
           id="path416-06"
           style="font-variation-settings:normal;fill:none;fill-opacity:1;stroke:#000000;stroke-width:2.6;stroke-linecap:butt;stroke-linejoin:miter;stroke-miterlimit:4;stroke-dasharray:none;stroke-dashoffset:0;stroke-opacity:1;stop-color:#000000"
           d="M 91.539329,80.917779 A 10.287839,10.287839 0 0 1 91.145008,78.0968 10.287839,10.287839 0 0 1 101.43285,67.808961 10.287839,10.287839 0 0 1 111.72069,78.0968 v 0 a 10.287839,10.287839 0 0 1 -0.3998,2.840119" /></g><g
         id="g4306"
         transform="translate(15.063476,-50.818704)"><path
           style="fill:#000000;fill-opacity:1;fill-rule:evenodd;stroke-width:1"
           d="m 86.439584,167.68975 c -2.95686,-0.81133 -5.83764,-2.41809 -7.73519,-4.87046 -2.38926,-3.29308 -3.35189,-7.91821 -1.6778,-11.72561 0.95233,-1.85237 2.8,-2.90939 4.38591,-4.14841 0.0596,-5.63622 -0.12857,-11.28144 0.21493,-16.90971 -0.0535,-1.89209 1.24115,-3.49906 3.01416,-4.05018 2.72221,-1.28136 6.09272,1.2491 5.97116,4.17067 0.10905,3.43112 0.0413,6.86531 0.0602,10.29785 2.21319,-0.4216 4.86469,-0.15416 6.26677,1.8231 1.40355,1.03726 3.610026,0.28822 4.939466,1.73086 1.37329,1.80946 3.89739,1.42559 5.51719,2.82896 1.72465,1.3672 1.88491,3.67251 1.78317,5.7 -0.11181,2.99149 0.12493,6.02254 -0.358,8.98428 -0.94719,3.09645 -3.70839,5.12451 -6.59366,6.2912 -5.122966,0.0545 -10.274536,0.17005 -15.400586,-0.076 l -0.38768,-0.0466 z m 15.889716,-2.77171 c 2.89592,-0.88449 4.57246,-4.04211 4.33875,-6.95599 0.0222,-2.76482 0.008,-5.52981 0.0122,-8.29471 -0.89037,-0.78002 -1.806,-1.90802 -3.14858,-1.45185 -2.48641,0.97279 -2.33169,-2.97833 -4.679816,-2.66978 -1.75475,0.61409 -3.54361,0.29162 -4.05775,-1.6838 -1.23166,-1.81788 -3.53636,-0.88676 -4.78375,0.33934 -2.48292,0.93244 -1.75789,-2.59631 -1.93945,-4.03828 -0.13136,-3.50231 0.0922,-7.0175 -0.18494,-10.51247 -0.74723,-2.76302 -4.55282,-0.84186 -3.75485,1.58523 -0.21859,7.74584 0.13359,15.50541 -0.27258,23.24491 -0.54115,1.70546 -3.00459,0.42529 -2.37007,-1.21693 -0.0916,-1.04111 -0.13882,-2.0855 -0.20822,-3.12824 -1.26637,1.01547 -2.5592,2.28077 -2.46876,4.05119 -0.20616,3.31081 0.85129,6.92974 3.6998,8.88513 1.72458,1.39186 3.86638,2.19191 6.09321,2.15591 4.28136,0.0894 8.58175,0.21429 12.854496,-0.11132 0.29478,-0.0422 0.58857,-0.0992 0.87034,-0.19834 z"
           id="path308-2" /><path
           id="rect4122"
           style="font-variation-settings:normal;opacity:1;fill:#ffffff;fill-opacity:1;stroke:none;stroke-width:2.6;stroke-linecap:butt;stroke-linejoin:miter;stroke-miterlimit:4;stroke-dasharray:none;stroke-dashoffset:0;stroke-opacity:1;stop-color:#000000;stop-opacity:1"
           d="m 86.239218,128.02457 c -1.26123,0.0192 -2.66678,1.37575 -2.15129,2.94349 -0.21859,7.74584 0.13332,15.5056 -0.27285,23.2451 -0.54115,1.7053 -3.0044,0.42508 -2.36988,-1.21698 -0.0916,-1.04111 -0.13886,-2.08524 -0.20826,-3.12798 -1.26637,1.01547 -2.55954,2.2805 -2.4691,4.05092 -0.20616,3.31065 0.85168,6.93001 3.70003,8.88524 1.72458,1.39186 3.86634,2.19194 6.09317,2.15594 4.28136,0.0894 8.58192,0.21451 12.854512,-0.1111 0.29478,-0.0422 0.58846,-0.0993 0.87023,-0.19844 2.89592,-0.88449 4.57247,-4.04244 4.33876,-6.95616 0.0222,-2.76482 0.008,-5.52969 0.0124,-8.29459 -0.89037,-0.78002 -1.80607,-1.90827 -3.14865,-1.4521 -2.48625,0.97263 -2.33184,-2.97816 -4.679812,-2.66961 -1.75475,0.61409 -3.5435,0.2918 -4.05764,-1.68362 -1.2315,-1.81788 -3.53629,-0.8871 -4.78368,0.339 -2.48292,0.93244 -1.75786,-2.59603 -1.93942,-4.038 -0.13136,-3.50215 0.09214,-7.01772 -0.185,-10.51253 -0.25686,-0.94979 -0.87516,-1.34608 -1.54358,-1.35858 -0.01994,-3.7e-4 -0.03992,-3e-4 -0.05994,0 z m -4.30465,37.4525 v 0.03 h 0.04754 c -0.01588,-0.01 -0.03169,-0.02 -0.04754,-0.03 z" /></g></g></g></svg>
